<svg width="480" height="315" viewBox="0 0 480 315" fill="none" xmlns="http://www.w3.org/2000/svg">
<path d="M99.0802 136.533C74.7797 136.644 55 137 55 137C55 137 78.5112 106.094 98.992 117.545C119.473 128.995 143 136.598 143 136.598C143 136.598 123.381 136.421 99.0802 136.533Z" fill="#F2F2F2"/>
<path d="M371 146C373.761 146 376 143.761 376 141C376 138.239 373.761 136 371 136C368.239 136 366 138.239 366 141C366 143.761 368.239 146 371 146Z" fill="#FF6584"/>
<path d="M333.99 220.314L371.977 176.693L373.149 177.714L335.162 221.335L333.99 220.314Z" fill="#3F3D56"/>
<path d="M373 185C377.418 185 381 181.418 381 177C381 172.582 377.418 169 373 169C368.582 169 365 172.582 365 177C365 181.418 368.582 185 373 185Z" fill="#3F3D56"/>
<path d="M349.286 204C349.286 204 364.646 184.427 345 171L349.286 204Z" fill="#3F3D56"/>
<path d="M94.578 238.405C122.726 290.596 182.467 313 182.467 313C182.467 313 196.57 250.786 168.422 198.595C140.274 146.404 80.5332 124 80.5332 124C80.5332 124 66.4298 186.214 94.578 238.405Z" fill="#3F3D56"/>
<path d="M113.621 221.46C164.431 252.116 184 313.008 184 313.008C184 313.008 121.189 324.196 70.3788 293.54C19.5686 262.884 0 201.992 0 201.992C0 201.992 62.811 190.804 113.621 221.46Z" fill="#111B47"/>
<path d="M315.194 221.73C264.108 251.967 244 312.75 244 312.75C244 312.75 306.719 324.508 357.806 294.27C408.892 264.033 429 203.25 429 203.25C429 203.25 366.281 191.492 315.194 221.73Z" fill="#3F3D56"/>
<path d="M333.739 240.221C305.134 292.135 245.207 314 245.207 314C245.207 314 231.657 251.694 260.261 199.779C288.866 147.865 348.793 126 348.793 126C348.793 126 362.343 188.306 333.739 240.221Z" fill="#111B47"/>
<path d="M229.881 98.04C223.866 92.5973 223.024 83.4508 227.944 77C227.63 77.2946 227.323 77.6005 227.029 77.9257C221.25 84.3193 221.747 94.1887 228.138 99.9695C234.528 105.75 244.393 105.254 250.171 98.86C250.465 98.5348 250.739 98.1985 251 97.8562C245.079 103.401 235.898 103.481 229.881 98.04Z" fill="#2F2E41"/>
<path d="M215.5 109C233.449 109 248 94.4493 248 76.5C248 58.5507 233.449 44 215.5 44C197.551 44 183 58.5507 183 76.5C183 94.4493 197.551 109 215.5 109Z" fill="#2F2E41"/>
<path d="M206.238 118.031L207.212 115.526L189.476 130.365L168.038 142.314C168.038 142.314 157.123 100.686 156.344 99.9148C155.564 99.1439 141.532 69.8497 135.295 83.7259C129.058 97.6021 147.378 105.697 147.378 105.697C147.378 105.697 147.963 156.383 166.673 155.998C185.384 155.612 208.576 138.845 208.966 137.303C209.356 135.762 206.238 118.031 206.238 118.031Z" fill="#FFB8B8"/>
<path d="M211.5 110C222.27 110 231 101.27 231 90.5C231 79.7304 222.27 71 211.5 71C200.73 71 192 79.7304 192 90.5C192 101.27 200.73 110 211.5 110Z" fill="#FFB8B8"/>
<path d="M214.879 104.75C214.879 104.75 219.943 111.318 218.385 112.091C216.827 112.864 207.868 113.25 202.414 119.818C196.961 126.386 209.036 143 209.036 143L255 112.477L236.303 106.295C236.303 106.295 223.449 99.3409 223.838 92L214.879 104.75Z" fill="#FFB8B8"/>
<path d="M277 315H225.37C222.445 293.663 221.093 274.109 221.093 274.109C221.093 274.109 220.339 293.778 218.331 315H152C161.403 252.159 205.978 184.016 205.978 184.016C205.978 184.016 206.366 174.733 207.529 173.185C208.693 171.642 200.941 171.255 197.451 159.655C195.323 152.574 197.236 147.941 199.055 145.41C199.679 144.497 200.447 143.692 201.329 143.025C201.329 143.025 202.105 134.908 201.329 133.747C201.23 133.596 201.995 133.062 203.41 132.251C204.589 131.572 206.219 130.698 208.169 129.694C219.338 123.915 240.957 113.691 248.363 110.208C249.987 109.439 250.931 109 250.931 109L264.107 113.639C274.568 117.117 274.568 139.16 274.568 139.16L273.976 140.06L258.164 163.959L248.992 177.829C251.319 179.372 246.67 189.041 246.67 189.041C246.67 189.041 253.295 198.539 258.682 213.035C261.729 221.104 263.807 229.504 264.872 238.06C265.551 243.605 265.685 249.203 265.27 254.774C263.834 273.402 270.218 296.042 277 315Z" fill="#2F2E41"/>
<path d="M263.951 115.434C263.091 114.946 262.063 114.865 261.139 115.214C260.216 115.564 259.492 116.307 259.161 117.246C258.007 120.454 256.838 127.142 257.255 141.048C258.021 166.62 258.404 184.057 258.404 184.057V222.803C258.404 222.803 241.551 260 250.744 260C259.936 260 266.447 230.553 266.447 230.553C266.447 230.553 274.874 185.994 272.192 178.245C272.192 178.245 279.752 124.71 263.951 115.434Z" fill="#FFB8B8"/>
<path d="M209.5 85C218.613 85 226 79.8513 226 73.5C226 67.1487 218.613 62 209.5 62C200.387 62 193 67.1487 193 73.5C193 79.8513 200.387 85 209.5 85Z" fill="#2F2E41"/>
<path d="M236 64C244.837 64 252 56.8366 252 48C252 39.1634 244.837 32 236 32C227.163 32 220 39.1634 220 48C220 56.8366 227.163 64 236 64Z" fill="#2F2E41"/>
<path d="M247 59.3846C238.682 59.3835 231.752 53.1302 231.06 45C231.023 45.4316 231 45.8669 231 46.3077C231 54.9743 238.163 62 247 62C255.837 62 263 54.9743 263 46.3077C263 45.8669 262.977 45.4316 262.94 45C262.248 53.1302 255.318 59.3835 247 59.3846Z" fill="#2F2E41"/>
<path d="M230.389 87.0184C231.118 86.8444 231.386 85.3534 230.988 83.6882C230.591 82.023 229.678 80.8141 228.949 80.9881C228.22 81.1622 227.952 82.6531 228.35 84.3183C228.748 85.9835 229.661 87.1924 230.389 87.0184Z" fill="#FFB8B8"/>
<path d="M230 87C230.552 87 231 86.5523 231 86C231 85.4477 230.552 85 230 85C229.448 85 229 85.4477 229 86C229 86.5523 229.448 87 230 87Z" fill="#F2F2F2"/>
<path fill-rule="evenodd" clip-rule="evenodd" d="M40 146.5C40 150.09 42.9101 153 46.5 153C50.0882 152.996 52.996 150.088 53 146.5C53 142.91 50.0899 140 46.5 140C42.9101 140 40 142.91 40 146.5ZM41.0833 146.5C41.0833 143.508 43.5085 141.083 46.5 141.083C49.4901 141.087 51.9132 143.51 51.9167 146.5C51.9167 149.492 49.4915 151.917 46.5 151.917C43.5085 151.917 41.0833 149.492 41.0833 146.5Z" fill="#3F3D56"/>
<path fill-rule="evenodd" clip-rule="evenodd" d="M304 107H318V93H304V107ZM316.923 105.923H305.077V94.0769H316.923V105.923Z" fill="#3F3D56"/>
<path d="M436.08 179.533C411.78 179.644 392 180 392 180C392 180 415.511 149.094 435.992 160.545C456.473 171.995 480 179.598 480 179.598C480 179.598 460.381 179.421 436.08 179.533Z" fill="#F2F2F2"/>
<path d="M361.08 74.5326C336.78 74.6437 317 75 317 75C317 75 340.511 44.0942 360.992 55.5446C381.473 66.995 405 74.5975 405 74.5975C405 74.5975 385.381 74.4214 361.08 74.5326Z" fill="#F2F2F2"/>
<path d="M131.358 88.1329L75.2363 59.1611C71.4039 57.1826 69.8946 52.4598 71.8653 48.6123L85.0868 22.7991C85.4748 22.0416 86.1559 21.4774 86.9705 21.239L131.205 8.29041C134.877 7.21537 138.746 9.21242 140.011 12.8366L154.545 54.4575C155.279 56.5587 155.12 58.8704 154.106 60.8506L141.865 84.7487C140.919 86.5963 139.28 87.9909 137.31 88.6255C135.339 89.2602 133.198 89.083 131.358 88.1329Z" fill="#F2F2F2"/>
<path opacity="0.1" d="M133.347 78.576L76.8055 54.3349C74.9836 53.3941 76.6919 54.8402 77.6287 53.0107L84.7363 24L154 59.7674L136.489 81.5108C135.553 83.3404 135.169 79.5168 133.347 78.576Z" fill="black"/>
<path d="M86.1565 61.6406C82.136 59.5732 80.5526 54.6379 82.6201 50.6173L101.66 13.5904C103.727 9.56988 108.662 7.98654 112.683 10.054L149.71 29.0936C153.73 31.1611 155.314 36.0964 153.246 40.1169L134.207 77.1438C132.139 81.1644 127.204 82.7477 123.183 80.6803L86.1565 61.6406Z" fill="#111B47"/>
<path opacity="0.1" d="M145 55.5855L130.458 84L79 57.4139L93.542 29L112.877 54.7877L145 55.5855Z" fill="black"/>
<path d="M112.252 56.6568L87.2877 23.6022C86.9738 23.1866 86.4677 22.9612 85.948 23.0055C85.4282 23.0499 84.9678 23.3577 84.7293 23.8205L70.5238 51.376C69.9499 52.4894 69.8428 53.7846 70.2262 54.9767C70.6096 56.1688 71.4521 57.1601 72.5683 57.7326L134.46 89.4775C135.577 90.05 136.875 90.1568 138.07 89.7743C139.265 89.3919 140.259 88.5516 140.833 87.4382L154.795 60.3547C155.086 59.79 155.066 59.1157 154.741 58.5696C154.416 58.0236 153.833 57.6826 153.196 57.6669L112.252 56.6568Z" fill="#F2F2F2"/>
<path d="M107.412 13.3322L121.839 20.7506L120.79 22.7907L106.363 15.3723L107.412 13.3322Z" fill="#F2F2F2"/>
<path d="M102.425 20.1647L145.268 42.1952L144.669 43.361L101.826 21.3305L102.425 20.1647Z" fill="#F2F2F2"/>
<path d="M100.402 24.0992L143.245 46.1297L142.645 47.2955L99.8023 25.265L100.402 24.0992Z" fill="#F2F2F2"/>
<path d="M98.3786 28.0338L141.222 50.0643L140.622 51.2301L97.7791 29.1996L98.3786 28.0338Z" fill="#F2F2F2"/>
<path d="M113.073 11.2818C114.773 7.97601 113.476 3.92066 110.176 2.22389C106.877 0.527119 102.824 1.83146 101.124 5.13721C99.4238 8.44296 100.721 12.4983 104.021 14.1951C107.32 15.8919 111.373 14.5875 113.073 11.2818Z" fill="white"/>
<path fill-rule="evenodd" clip-rule="evenodd" d="M99.8874 4.3424C101.908 0.413987 106.733 -1.13306 110.664 0.886976C114.583 2.91605 116.128 7.72806 114.121 11.6576C112.1 15.586 107.275 17.1331 103.345 15.113C99.4142 13.093 97.8664 8.27081 99.8874 4.3424ZM101.82 5.52166L103.592 11.0416L113.541 7.85717L113.044 6.30889L104.646 9.00179L103.369 5.02494L101.82 5.52166Z" fill="#57B894"/>
</svg>
