<svg width="67" height="21" viewBox="0 0 67 21" fill="none" xmlns="http://www.w3.org/2000/svg">
<path fill-rule="evenodd" clip-rule="evenodd" d="M10.4078 20.7928C16.1559 20.7928 20.8156 16.1382 20.8156 10.3964C20.8156 4.65464 16.1559 0 10.4078 0C4.65974 0 0 4.65464 0 10.3964C0 16.1382 4.65974 20.7928 10.4078 20.7928Z" fill="#12181B"/>
<path fill-rule="evenodd" clip-rule="evenodd" d="M10.2453 18.5186C14.6461 18.5186 18.2137 14.9549 18.2137 10.5589C18.2137 6.1628 14.6461 2.59909 10.2453 2.59909C5.8444 2.59909 2.2768 6.1628 2.2768 10.5589C2.2768 14.9549 5.8444 18.5186 10.2453 18.5186Z" fill="#0F0F0F"/>
<mask id="mask0_0_5410" style="mask-type:luminance" maskUnits="userSpaceOnUse" x="2" y="2" width="17" height="17">
<path fill-rule="evenodd" clip-rule="evenodd" d="M10.2453 18.5186C14.6461 18.5186 18.2137 14.9549 18.2137 10.5589C18.2137 6.1628 14.6461 2.59909 10.2453 2.59909C5.8444 2.59909 2.2768 6.1628 2.2768 10.5589C2.2768 14.9549 5.8444 18.5186 10.2453 18.5186Z" fill="white"/>
</mask>
<g mask="url(#mask0_0_5410)">
<g filter="url(#filter0_f_0_5410)">
<path fill-rule="evenodd" clip-rule="evenodd" d="M5.92175 14.3198C4.1417 12.8913 4.38245 9.12021 5.55954 7.08367C6.73663 5.04713 12.8036 4.91283 12.8036 4.91283C12.8036 4.91283 5.84604 8.04301 7.64346 11.4049C8.30777 12.6474 5.92175 14.3198 5.92175 14.3198ZM13.2922 8.94396C13.437 8.42651 14.4119 8.2308 14.6311 8.72141C15.3867 10.4131 16.1445 12.7302 15.339 13.9581C13.9749 16.0372 10.7023 16.5927 8.57377 15.7671C11.6014 13.1455 12.8138 10.6535 13.2922 8.94396Z" fill="#CDCDCD"/>
</g>
</g>
<path fill-rule="evenodd" clip-rule="evenodd" d="M56.5923 20.7928C62.3404 20.7928 67.0001 16.1382 67.0001 10.3964C67.0001 4.65464 62.3404 0 56.5923 0C50.8443 0 46.1845 4.65464 46.1845 10.3964C46.1845 16.1382 50.8443 20.7928 56.5923 20.7928Z" fill="#12181B"/>
<path fill-rule="evenodd" clip-rule="evenodd" d="M62.0607 4.93039C58.9488 1.81986 53.9051 1.81819 50.7953 4.92667C47.6855 8.03515 47.6871 13.0767 50.799 16.1872C53.9109 19.2977 58.9546 19.2994 62.0644 16.1909C65.1742 13.0824 65.1725 8.04093 62.0607 4.93039Z" fill="#0F0F0F"/>
<mask id="mask1_0_5410" style="mask-type:luminance" maskUnits="userSpaceOnUse" x="48" y="2" width="17" height="17">
<path fill-rule="evenodd" clip-rule="evenodd" d="M62.0607 4.93039C58.9488 1.81986 53.9051 1.81819 50.7953 4.92667C47.6855 8.03515 47.6871 13.0767 50.799 16.1872C53.9109 19.2977 58.9546 19.2994 62.0644 16.1909C65.1742 13.0824 65.1725 8.04093 62.0607 4.93039Z" fill="white"/>
</mask>
<g mask="url(#mask1_0_5410)">
<g filter="url(#filter1_f_0_5410)">
<path fill-rule="evenodd" clip-rule="evenodd" d="M62.1476 10.9554C62.3957 13.2236 59.5577 15.72 57.2847 16.3281C56.626 16.5043 55.8451 16.3326 55.0683 15.9998C54.5183 15.7641 55.0538 13.4998 55.5014 13.1028C57.3409 11.4712 58.6587 8.56884 62.1476 10.9554ZM55.476 6.87246C55.0845 7.05694 54.3494 7.08313 54.1912 6.68043C53.8793 5.88702 53.7917 4.85439 55.2326 4.55498C57.6679 4.04893 59.1861 5.25437 60.1071 7.3426C57.5313 6.41724 56.1799 6.54079 55.476 6.87246Z" fill="#CDCDCD"/>
</g>
</g>
<defs>
<filter id="filter0_f_0_5410" x="-0.806345" y="-0.524767" width="21.9281" height="22.0959" filterUnits="userSpaceOnUse" color-interpolation-filters="sRGB">
<feFlood flood-opacity="0" result="BackgroundImageFix"/>
<feBlend mode="normal" in="SourceGraphic" in2="BackgroundImageFix" result="shape"/>
<feGaussianBlur stdDeviation="2.71828" result="effect1_foregroundBlur_0_5410"/>
</filter>
<filter id="filter1_f_0_5410" x="48.5643" y="-0.997666" width="19.0359" height="22.8337" filterUnits="userSpaceOnUse" color-interpolation-filters="sRGB">
<feFlood flood-opacity="0" result="BackgroundImageFix"/>
<feBlend mode="normal" in="SourceGraphic" in2="BackgroundImageFix" result="shape"/>
<feGaussianBlur stdDeviation="2.71828" result="effect1_foregroundBlur_0_5410"/>
</filter>
</defs>
</svg>
