<svg width="469" height="1013" viewBox="0 0 469 1013" fill="none" xmlns="http://www.w3.org/2000/svg">
<mask id="mask0_0_5400" style="mask-type:luminance" maskUnits="userSpaceOnUse" x="0" y="0" width="469" height="1013">
<path d="M0 98.4817C0 64.0099 0 46.7739 6.70866 33.6074C12.6098 22.0259 22.0259 12.6098 33.6074 6.70866C46.7739 0 64.0098 0 98.4817 0H370.169C404.641 0 421.876 0 435.043 6.70866C446.624 12.6098 456.041 22.0259 461.942 33.6074C468.65 46.7739 468.65 64.0098 468.65 98.4817V878.488C468.65 925.572 468.65 949.114 459.487 967.097C451.427 982.916 438.566 995.777 422.748 1003.84C404.764 1013 381.222 1013 334.139 1013H134.512C87.4281 1013 63.8864 1013 45.9029 1003.84C30.0841 995.777 17.2231 982.916 9.16305 967.097C0 949.114 0 925.572 0 878.488V98.4817Z" fill="white"/>
</mask>
<g mask="url(#mask0_0_5400)">
<g filter="url(#filter0_f_0_5400)">
<rect x="461.491" width="7.15996" height="1013" fill="white" fill-opacity="0.59"/>
</g>
<g filter="url(#filter1_f_0_5400)">
<rect x="1.30186" width="7.15994" height="1013" fill="white" fill-opacity="0.59"/>
</g>
<g filter="url(#filter2_i_0_5400)">
<path fill-rule="evenodd" clip-rule="evenodd" d="M34.1757 -10.9739C33.2313 -10.5792 32.3113 -10.1537 31.4112 -9.69505C20.4416 -4.10582 11.5231 4.81271 5.93387 15.7823C4.65741 18.2874 3.6378 20.946 2.82319 23.857C3.21326 22.9815 3.62373 22.1209 4.05566 21.2731C4.15745 21.0734 4.26003 20.8741 4.36342 20.6753C4.95133 19.0489 5.61977 17.501 6.37974 16.0094C11.7491 5.47152 20.2174 -3.15722 30.6319 -8.72385C31.7915 -9.50367 32.9731 -10.2541 34.1757 -10.9739ZM3.2952 24.0272C2.83884 25.0498 2.41044 26.0932 2.0083 27.1609C1.25056 30.6697 0.729761 34.5459 0.371419 38.9318C-0.42027 48.6216 -0.42027 60.8211 -0.42027 77.066V77.078V920.123V920.135C-0.42027 932.527 -0.42027 942.565 -0.0688318 950.931C0.122896 951.669 0.323631 952.395 0.533796 953.109C0.0802796 944.332 0.0801446 933.637 0.0801446 920.123V77.078C0.0801446 60.8189 0.0803393 48.6396 0.870172 38.9725C1.34196 33.1981 2.09506 28.3279 3.2952 24.0272ZM0.651211 955.173C0.716459 956.219 0.789162 957.237 0.870172 958.229C1.65977 967.893 3.23728 975.024 6.37974 981.192C11.921 992.067 20.763 1000.91 31.6384 1006.45C37.8058 1009.59 44.9373 1011.17 54.6014 1011.96C64.2685 1012.75 76.4478 1012.75 92.707 1012.75H375.618C391.877 1012.75 404.056 1012.75 413.723 1011.96C423.388 1011.17 430.519 1009.59 436.687 1006.45C447.562 1000.91 456.404 992.067 461.945 981.192C465.088 975.024 466.665 967.893 467.455 958.229C467.536 957.237 467.608 956.219 467.674 955.173C467.887 954.523 468.091 953.863 468.288 953.194C468.196 954.961 468.086 956.65 467.953 958.269C467.161 967.964 465.575 975.169 462.391 981.419C456.802 992.388 447.883 1001.31 436.914 1006.9C430.664 1010.08 423.459 1011.67 413.764 1012.46C404.075 1013.25 391.876 1013.25 375.633 1013.25H375.618H92.707H92.6919C76.4486 1013.25 64.2499 1013.25 54.5607 1012.46C44.8656 1011.67 37.6609 1010.08 31.4112 1006.9C20.4416 1001.31 11.5231 992.388 5.93387 981.419C2.74947 975.169 1.16354 967.964 0.371419 958.269C0.239105 956.65 0.128904 954.96 0.0371216 953.194C0.233455 953.863 0.438035 954.523 0.651211 955.173ZM468.394 950.931C468.202 951.669 468.001 952.395 467.791 953.109C468.245 944.332 468.245 933.637 468.245 920.123V77.078C468.245 60.8189 468.245 48.6396 467.455 38.9725C466.983 33.1979 466.23 28.3276 465.03 24.0269C465.486 25.0494 465.914 26.0929 466.317 27.1606C467.074 30.6694 467.595 34.5457 467.953 38.9318C468.745 48.6217 468.745 60.8215 468.745 77.0668V77.078V920.123V920.134C468.745 932.527 468.745 942.565 468.394 950.931ZM465.502 23.8566C464.687 20.9458 463.667 18.2873 462.391 15.7823C456.802 4.81271 447.883 -4.10582 436.914 -9.69505C436.014 -10.1537 435.094 -10.5791 434.149 -10.9738C435.352 -10.2539 436.534 -9.50361 437.693 -8.72373C448.108 -3.1571 456.576 5.47164 461.945 16.0094C462.705 17.5008 463.373 19.0487 463.961 20.675C464.065 20.8739 464.167 21.0733 464.269 21.2731C464.701 22.1208 465.112 22.9812 465.502 23.8566ZM433.923 -10.5261C428.386 -12.8348 421.979 -14.0842 413.723 -14.7588C404.056 -15.5486 391.877 -15.5488 375.618 -15.5488H92.707C76.4478 -15.5488 64.2685 -15.5486 54.6014 -14.7588C46.3462 -14.0842 39.939 -12.8349 34.4021 -10.5262C35.2915 -11.0592 36.1925 -11.5754 37.1046 -12.0743C42.0321 -13.7296 47.6668 -14.6943 54.5607 -15.2575C64.2505 -16.0492 76.4501 -16.0492 92.695 -16.0492H92.707H375.618H375.63C391.875 -16.0492 404.074 -16.0492 413.764 -15.2575C420.658 -14.6943 426.293 -13.7296 431.221 -12.0743C432.133 -11.5753 433.034 -11.0591 433.923 -10.5261Z" fill="#606060"/>
<path fill-rule="evenodd" clip-rule="evenodd" d="M34.1757 -10.9739C33.2313 -10.5792 32.3113 -10.1537 31.4112 -9.69505C20.4416 -4.10582 11.5231 4.81271 5.93387 15.7823C4.65741 18.2874 3.6378 20.946 2.82319 23.857C3.21326 22.9815 3.62373 22.1209 4.05566 21.2731C4.15745 21.0734 4.26003 20.8741 4.36342 20.6753C4.95133 19.0489 5.61977 17.501 6.37974 16.0094C11.7491 5.47152 20.2174 -3.15722 30.6319 -8.72385C31.7915 -9.50367 32.9731 -10.2541 34.1757 -10.9739ZM3.2952 24.0272C2.83884 25.0498 2.41044 26.0932 2.0083 27.1609C1.25056 30.6697 0.729761 34.5459 0.371419 38.9318C-0.42027 48.6216 -0.42027 60.8211 -0.42027 77.066V77.078V920.123V920.135C-0.42027 932.527 -0.42027 942.565 -0.0688318 950.931C0.122896 951.669 0.323631 952.395 0.533796 953.109C0.0802796 944.332 0.0801446 933.637 0.0801446 920.123V77.078C0.0801446 60.8189 0.0803393 48.6396 0.870172 38.9725C1.34196 33.1981 2.09506 28.3279 3.2952 24.0272ZM0.651211 955.173C0.716459 956.219 0.789162 957.237 0.870172 958.229C1.65977 967.893 3.23728 975.024 6.37974 981.192C11.921 992.067 20.763 1000.91 31.6384 1006.45C37.8058 1009.59 44.9373 1011.17 54.6014 1011.96C64.2685 1012.75 76.4478 1012.75 92.707 1012.75H375.618C391.877 1012.75 404.056 1012.75 413.723 1011.96C423.388 1011.17 430.519 1009.59 436.687 1006.45C447.562 1000.91 456.404 992.067 461.945 981.192C465.088 975.024 466.665 967.893 467.455 958.229C467.536 957.237 467.608 956.219 467.674 955.173C467.887 954.523 468.091 953.863 468.288 953.194C468.196 954.961 468.086 956.65 467.953 958.269C467.161 967.964 465.575 975.169 462.391 981.419C456.802 992.388 447.883 1001.31 436.914 1006.9C430.664 1010.08 423.459 1011.67 413.764 1012.46C404.075 1013.25 391.876 1013.25 375.633 1013.25H375.618H92.707H92.6919C76.4486 1013.25 64.2499 1013.25 54.5607 1012.46C44.8656 1011.67 37.6609 1010.08 31.4112 1006.9C20.4416 1001.31 11.5231 992.388 5.93387 981.419C2.74947 975.169 1.16354 967.964 0.371419 958.269C0.239105 956.65 0.128904 954.96 0.0371216 953.194C0.233455 953.863 0.438035 954.523 0.651211 955.173ZM468.394 950.931C468.202 951.669 468.001 952.395 467.791 953.109C468.245 944.332 468.245 933.637 468.245 920.123V77.078C468.245 60.8189 468.245 48.6396 467.455 38.9725C466.983 33.1979 466.23 28.3276 465.03 24.0269C465.486 25.0494 465.914 26.0929 466.317 27.1606C467.074 30.6694 467.595 34.5457 467.953 38.9318C468.745 48.6217 468.745 60.8215 468.745 77.0668V77.078V920.123V920.134C468.745 932.527 468.745 942.565 468.394 950.931ZM465.502 23.8566C464.687 20.9458 463.667 18.2873 462.391 15.7823C456.802 4.81271 447.883 -4.10582 436.914 -9.69505C436.014 -10.1537 435.094 -10.5791 434.149 -10.9738C435.352 -10.2539 436.534 -9.50361 437.693 -8.72373C448.108 -3.1571 456.576 5.47164 461.945 16.0094C462.705 17.5008 463.373 19.0487 463.961 20.675C464.065 20.8739 464.167 21.0733 464.269 21.2731C464.701 22.1208 465.112 22.9812 465.502 23.8566ZM433.923 -10.5261C428.386 -12.8348 421.979 -14.0842 413.723 -14.7588C404.056 -15.5486 391.877 -15.5488 375.618 -15.5488H92.707C76.4478 -15.5488 64.2685 -15.5486 54.6014 -14.7588C46.3462 -14.0842 39.939 -12.8349 34.4021 -10.5262C35.2915 -11.0592 36.1925 -11.5754 37.1046 -12.0743C42.0321 -13.7296 47.6668 -14.6943 54.5607 -15.2575C64.2505 -16.0492 76.4501 -16.0492 92.695 -16.0492H92.707H375.618H375.63C391.875 -16.0492 404.074 -16.0492 413.764 -15.2575C420.658 -14.6943 426.293 -13.7296 431.221 -12.0743C432.133 -11.5753 433.034 -11.0591 433.923 -10.5261Z" fill="url(#paint0_linear_0_5400)"/>
</g>
<g filter="url(#filter3_i_0_5400)">
<path fill-rule="evenodd" clip-rule="evenodd" d="M34.1756 1022.02C33.2312 1021.63 32.3113 1021.2 31.4112 1020.74C20.4416 1015.16 11.5231 1006.24 5.93387 995.267C4.65743 992.762 3.63784 990.104 2.82324 987.193C3.21329 988.068 3.62374 988.929 4.05566 989.776C4.15747 989.976 4.26008 990.176 4.36349 990.374C4.95138 992.001 5.6198 993.549 6.37974 995.04C11.749 1005.58 20.2173 1014.21 30.6317 1019.77C31.7914 1020.55 32.973 1021.3 34.1756 1022.02ZM3.29525 987.022C2.83888 986 2.41048 984.957 2.00833 983.889C1.25057 980.38 0.729766 976.504 0.371419 972.118C-0.42027 962.428 -0.42027 950.228 -0.42027 933.984V933.972V90.9264V90.9145C-0.42027 78.5223 -0.42027 68.484 -0.0688289 60.1183C0.122899 59.3804 0.323635 58.6548 0.5338 57.9406C0.0802796 66.7176 0.0801446 77.4129 0.0801446 90.9264V933.972C0.0801446 950.231 0.0803393 962.41 0.870172 972.077C1.34197 977.852 2.09507 982.722 3.29525 987.022ZM0.651215 55.8763C0.716463 54.8303 0.789164 53.8124 0.870172 52.8209C1.65977 43.1567 3.23728 36.0253 6.37974 29.8578C11.921 18.9825 20.763 10.1405 31.6384 4.59921C37.8058 1.45677 44.9373 -0.120706 54.6014 -0.910301C64.2685 -1.70014 76.4478 -1.70038 92.707 -1.70038H375.618C391.877 -1.70038 404.056 -1.70014 413.723 -0.910301C423.388 -0.120706 430.519 1.45677 436.687 4.59921C447.562 10.1405 456.404 18.9825 461.945 29.8578C465.088 36.0253 466.665 43.1567 467.455 52.8209C467.536 53.8123 467.608 54.8302 467.674 55.8762C467.887 56.5267 468.091 57.1863 468.288 57.8556C468.196 56.0889 468.086 54.3995 467.953 52.7802C467.161 43.085 465.575 35.8804 462.391 29.6306C456.802 18.6611 447.883 9.74258 436.914 4.15335C430.664 0.968943 423.459 -0.616967 413.764 -1.40913C404.075 -2.2008 391.876 -2.2008 375.633 -2.2008H375.618H92.707H92.6919C76.4486 -2.2008 64.2499 -2.2008 54.5607 -1.40913C44.8656 -0.616967 37.6609 0.968943 31.4112 4.15335C20.4416 9.74258 11.5231 18.6611 5.93387 29.6306C2.74947 35.8804 1.16354 43.085 0.371419 52.7802C0.239107 54.3996 0.128908 56.0891 0.0371259 57.8559C0.233459 57.1865 0.43804 56.5269 0.651215 55.8763ZM468.394 60.118C468.202 59.3802 468.001 58.6546 467.791 57.9404C468.245 66.7174 468.245 77.4128 468.245 90.9264V933.972C468.245 950.231 468.245 962.41 467.455 972.077C466.983 977.852 466.23 982.722 465.03 987.023C465.486 986 465.914 984.957 466.317 983.889C467.074 980.38 467.595 976.504 467.953 972.118C468.745 962.428 468.745 950.228 468.745 933.983V933.972V90.9264V90.915C468.745 78.5224 468.745 68.484 468.394 60.118ZM465.502 987.193C464.687 990.104 463.667 992.762 462.391 995.267C456.802 1006.24 447.883 1015.16 436.914 1020.74C436.014 1021.2 435.094 1021.63 434.15 1022.02C435.352 1021.3 436.534 1020.55 437.693 1019.77C448.108 1014.21 456.576 1005.58 461.945 995.04C462.705 993.549 463.373 992.001 463.961 990.375C464.065 990.176 464.167 989.976 464.269 989.776C464.701 988.929 465.112 988.068 465.502 987.193ZM433.923 1021.58C428.386 1023.88 421.979 1025.13 413.723 1025.81C404.056 1026.6 391.877 1026.6 375.618 1026.6H92.707C76.4478 1026.6 64.2685 1026.6 54.6014 1025.81C46.346 1025.13 39.9387 1023.88 34.4017 1021.58C35.2912 1022.11 36.1922 1022.62 37.1043 1023.12C42.0319 1024.78 47.6666 1025.74 54.5607 1026.31C64.2505 1027.1 76.4501 1027.1 92.695 1027.1H92.707H375.618H375.63C391.875 1027.1 404.074 1027.1 413.764 1026.31C420.658 1025.74 426.293 1024.78 431.221 1023.12C432.133 1022.62 433.034 1022.11 433.923 1021.58Z" fill="#606060"/>
<path fill-rule="evenodd" clip-rule="evenodd" d="M34.1756 1022.02C33.2312 1021.63 32.3113 1021.2 31.4112 1020.74C20.4416 1015.16 11.5231 1006.24 5.93387 995.267C4.65743 992.762 3.63784 990.104 2.82324 987.193C3.21329 988.068 3.62374 988.929 4.05566 989.776C4.15747 989.976 4.26008 990.176 4.36349 990.374C4.95138 992.001 5.6198 993.549 6.37974 995.04C11.749 1005.58 20.2173 1014.21 30.6317 1019.77C31.7914 1020.55 32.973 1021.3 34.1756 1022.02ZM3.29525 987.022C2.83888 986 2.41048 984.957 2.00833 983.889C1.25057 980.38 0.729766 976.504 0.371419 972.118C-0.42027 962.428 -0.42027 950.228 -0.42027 933.984V933.972V90.9264V90.9145C-0.42027 78.5223 -0.42027 68.484 -0.0688289 60.1183C0.122899 59.3804 0.323635 58.6548 0.5338 57.9406C0.0802796 66.7176 0.0801446 77.4129 0.0801446 90.9264V933.972C0.0801446 950.231 0.0803393 962.41 0.870172 972.077C1.34197 977.852 2.09507 982.722 3.29525 987.022ZM0.651215 55.8763C0.716463 54.8303 0.789164 53.8124 0.870172 52.8209C1.65977 43.1567 3.23728 36.0253 6.37974 29.8578C11.921 18.9825 20.763 10.1405 31.6384 4.59921C37.8058 1.45677 44.9373 -0.120706 54.6014 -0.910301C64.2685 -1.70014 76.4478 -1.70038 92.707 -1.70038H375.618C391.877 -1.70038 404.056 -1.70014 413.723 -0.910301C423.388 -0.120706 430.519 1.45677 436.687 4.59921C447.562 10.1405 456.404 18.9825 461.945 29.8578C465.088 36.0253 466.665 43.1567 467.455 52.8209C467.536 53.8123 467.608 54.8302 467.674 55.8762C467.887 56.5267 468.091 57.1863 468.288 57.8556C468.196 56.0889 468.086 54.3995 467.953 52.7802C467.161 43.085 465.575 35.8804 462.391 29.6306C456.802 18.6611 447.883 9.74258 436.914 4.15335C430.664 0.968943 423.459 -0.616967 413.764 -1.40913C404.075 -2.2008 391.876 -2.2008 375.633 -2.2008H375.618H92.707H92.6919C76.4486 -2.2008 64.2499 -2.2008 54.5607 -1.40913C44.8656 -0.616967 37.6609 0.968943 31.4112 4.15335C20.4416 9.74258 11.5231 18.6611 5.93387 29.6306C2.74947 35.8804 1.16354 43.085 0.371419 52.7802C0.239107 54.3996 0.128908 56.0891 0.0371259 57.8559C0.233459 57.1865 0.43804 56.5269 0.651215 55.8763ZM468.394 60.118C468.202 59.3802 468.001 58.6546 467.791 57.9404C468.245 66.7174 468.245 77.4128 468.245 90.9264V933.972C468.245 950.231 468.245 962.41 467.455 972.077C466.983 977.852 466.23 982.722 465.03 987.023C465.486 986 465.914 984.957 466.317 983.889C467.074 980.38 467.595 976.504 467.953 972.118C468.745 962.428 468.745 950.228 468.745 933.983V933.972V90.9264V90.915C468.745 78.5224 468.745 68.484 468.394 60.118ZM465.502 987.193C464.687 990.104 463.667 992.762 462.391 995.267C456.802 1006.24 447.883 1015.16 436.914 1020.74C436.014 1021.2 435.094 1021.63 434.15 1022.02C435.352 1021.3 436.534 1020.55 437.693 1019.77C448.108 1014.21 456.576 1005.58 461.945 995.04C462.705 993.549 463.373 992.001 463.961 990.375C464.065 990.176 464.167 989.976 464.269 989.776C464.701 988.929 465.112 988.068 465.502 987.193ZM433.923 1021.58C428.386 1023.88 421.979 1025.13 413.723 1025.81C404.056 1026.6 391.877 1026.6 375.618 1026.6H92.707C76.4478 1026.6 64.2685 1026.6 54.6014 1025.81C46.346 1025.13 39.9387 1023.88 34.4017 1021.58C35.2912 1022.11 36.1922 1022.62 37.1043 1023.12C42.0319 1024.78 47.6666 1025.74 54.5607 1026.31C64.2505 1027.1 76.4501 1027.1 92.695 1027.1H92.707H375.618H375.63C391.875 1027.1 404.074 1027.1 413.764 1026.31C420.658 1025.74 426.293 1024.78 431.221 1023.12C432.133 1022.62 433.034 1022.11 433.923 1021.58Z" fill="url(#paint1_linear_0_5400)"/>
</g>
<path fill-rule="evenodd" clip-rule="evenodd" d="M192.993 -1.95059V-1.34671C192.993 0.348088 193.667 1.97337 194.866 3.17112C196.063 4.36716 197.686 5.03898 199.378 5.03898H267.059C268.636 5.03898 270.18 4.58821 271.51 3.7398L272.592 3.0493C274.299 1.9598 275.332 0.0745925 275.332 -1.95059H192.993Z" fill="#1E1E1E"/>
<mask id="mask1_0_5400" style="mask-type:luminance" maskUnits="userSpaceOnUse" x="192" y="-2" width="84" height="8">
<path fill-rule="evenodd" clip-rule="evenodd" d="M192.993 -1.95059V-1.34671C192.993 0.348088 193.667 1.97337 194.866 3.17112C196.063 4.36716 197.686 5.03898 199.378 5.03898H267.059C268.636 5.03898 270.18 4.58821 271.51 3.7398L272.592 3.0493C274.299 1.9598 275.332 0.0745925 275.332 -1.95059H192.993Z" fill="white"/>
</mask>
<g mask="url(#mask1_0_5400)">
<g filter="url(#filter4_f_0_5400)">
<rect x="192.993" y="1.62546" width="82.3392" height="0.975289" fill="#ABABAB"/>
</g>
<path fill-rule="evenodd" clip-rule="evenodd" d="M197.874 3.25094C198.414 3.25094 198.851 2.81429 198.851 2.27565C198.851 1.73702 198.414 1.30036 197.874 1.30036C197.335 1.30036 196.898 1.73702 196.898 2.27565C196.898 2.81429 197.335 3.25094 197.874 3.25094Z" fill="#010101"/>
<path fill-rule="evenodd" clip-rule="evenodd" d="M201.129 3.25094C201.668 3.25094 202.105 2.81429 202.105 2.27565C202.105 1.73702 201.668 1.30036 201.129 1.30036C200.59 1.30036 200.153 1.73702 200.153 2.27565C200.153 2.81429 200.59 3.25094 201.129 3.25094Z" fill="#010101"/>
<path fill-rule="evenodd" clip-rule="evenodd" d="M204.384 3.25094C204.923 3.25094 205.36 2.81429 205.36 2.27565C205.36 1.73702 204.923 1.30036 204.384 1.30036C203.844 1.30036 203.407 1.73702 203.407 2.27565C203.407 2.81429 203.844 3.25094 204.384 3.25094Z" fill="#010101"/>
<path fill-rule="evenodd" clip-rule="evenodd" d="M207.638 3.25094C208.177 3.25094 208.615 2.81429 208.615 2.27565C208.615 1.73702 208.177 1.30036 207.638 1.30036C207.099 1.30036 206.662 1.73702 206.662 2.27565C206.662 2.81429 207.099 3.25094 207.638 3.25094Z" fill="#010101"/>
<path fill-rule="evenodd" clip-rule="evenodd" d="M210.893 3.25094C211.432 3.25094 211.869 2.81429 211.869 2.27565C211.869 1.73702 211.432 1.30036 210.893 1.30036C210.353 1.30036 209.916 1.73702 209.916 2.27565C209.916 2.81429 210.353 3.25094 210.893 3.25094Z" fill="#010101"/>
<path fill-rule="evenodd" clip-rule="evenodd" d="M214.147 3.25094C214.686 3.25094 215.123 2.81429 215.123 2.27565C215.123 1.73702 214.686 1.30036 214.147 1.30036C213.608 1.30036 213.171 1.73702 213.171 2.27565C213.171 2.81429 213.608 3.25094 214.147 3.25094Z" fill="#010101"/>
<path fill-rule="evenodd" clip-rule="evenodd" d="M217.402 3.25094C217.941 3.25094 218.378 2.81429 218.378 2.27565C218.378 1.73702 217.941 1.30036 217.402 1.30036C216.862 1.30036 216.425 1.73702 216.425 2.27565C216.425 2.81429 216.862 3.25094 217.402 3.25094Z" fill="#010101"/>
<path fill-rule="evenodd" clip-rule="evenodd" d="M220.656 3.25094C221.195 3.25094 221.632 2.81429 221.632 2.27565C221.632 1.73702 221.195 1.30036 220.656 1.30036C220.117 1.30036 219.68 1.73702 219.68 2.27565C219.68 2.81429 220.117 3.25094 220.656 3.25094Z" fill="#010101"/>
<path fill-rule="evenodd" clip-rule="evenodd" d="M223.911 3.25094C224.45 3.25094 224.887 2.81429 224.887 2.27565C224.887 1.73702 224.45 1.30036 223.911 1.30036C223.371 1.30036 222.934 1.73702 222.934 2.27565C222.934 2.81429 223.371 3.25094 223.911 3.25094Z" fill="#010101"/>
<path fill-rule="evenodd" clip-rule="evenodd" d="M227.165 3.25094C227.704 3.25094 228.141 2.81429 228.141 2.27565C228.141 1.73702 227.704 1.30036 227.165 1.30036C226.626 1.30036 226.189 1.73702 226.189 2.27565C226.189 2.81429 226.626 3.25094 227.165 3.25094Z" fill="#010101"/>
<path fill-rule="evenodd" clip-rule="evenodd" d="M230.42 3.25094C230.959 3.25094 231.396 2.81429 231.396 2.27565C231.396 1.73702 230.959 1.30036 230.42 1.30036C229.881 1.30036 229.443 1.73702 229.443 2.27565C229.443 2.81429 229.881 3.25094 230.42 3.25094Z" fill="#010101"/>
<path fill-rule="evenodd" clip-rule="evenodd" d="M233.674 3.25094C234.213 3.25094 234.651 2.81429 234.651 2.27565C234.651 1.73702 234.213 1.30036 233.674 1.30036C233.135 1.30036 232.698 1.73702 232.698 2.27565C232.698 2.81429 233.135 3.25094 233.674 3.25094Z" fill="#010101"/>
<path fill-rule="evenodd" clip-rule="evenodd" d="M236.929 3.25094C237.468 3.25094 237.905 2.81429 237.905 2.27565C237.905 1.73702 237.468 1.30036 236.929 1.30036C236.389 1.30036 235.952 1.73702 235.952 2.27565C235.952 2.81429 236.389 3.25094 236.929 3.25094Z" fill="#010101"/>
<path fill-rule="evenodd" clip-rule="evenodd" d="M240.183 3.25094C240.722 3.25094 241.16 2.81429 241.16 2.27565C241.16 1.73702 240.722 1.30036 240.183 1.30036C239.644 1.30036 239.207 1.73702 239.207 2.27565C239.207 2.81429 239.644 3.25094 240.183 3.25094Z" fill="#010101"/>
<path fill-rule="evenodd" clip-rule="evenodd" d="M243.438 3.25094C243.977 3.25094 244.414 2.81429 244.414 2.27565C244.414 1.73702 243.977 1.30036 243.438 1.30036C242.898 1.30036 242.461 1.73702 242.461 2.27565C242.461 2.81429 242.898 3.25094 243.438 3.25094Z" fill="#010101"/>
<path fill-rule="evenodd" clip-rule="evenodd" d="M246.692 3.25094C247.232 3.25094 247.669 2.81429 247.669 2.27565C247.669 1.73702 247.232 1.30036 246.692 1.30036C246.153 1.30036 245.716 1.73702 245.716 2.27565C245.716 2.81429 246.153 3.25094 246.692 3.25094Z" fill="#010101"/>
<path fill-rule="evenodd" clip-rule="evenodd" d="M249.947 3.25094C250.486 3.25094 250.923 2.81429 250.923 2.27565C250.923 1.73702 250.486 1.30036 249.947 1.30036C249.407 1.30036 248.97 1.73702 248.97 2.27565C248.97 2.81429 249.407 3.25094 249.947 3.25094Z" fill="#010101"/>
<path fill-rule="evenodd" clip-rule="evenodd" d="M253.201 3.25094C253.741 3.25094 254.178 2.81429 254.178 2.27565C254.178 1.73702 253.741 1.30036 253.201 1.30036C252.662 1.30036 252.225 1.73702 252.225 2.27565C252.225 2.81429 252.662 3.25094 253.201 3.25094Z" fill="#010101"/>
<path fill-rule="evenodd" clip-rule="evenodd" d="M256.456 3.25094C256.995 3.25094 257.432 2.81429 257.432 2.27565C257.432 1.73702 256.995 1.30036 256.456 1.30036C255.917 1.30036 255.479 1.73702 255.479 2.27565C255.479 2.81429 255.917 3.25094 256.456 3.25094Z" fill="#010101"/>
<path fill-rule="evenodd" clip-rule="evenodd" d="M259.71 3.25094C260.25 3.25094 260.687 2.81429 260.687 2.27565C260.687 1.73702 260.25 1.30036 259.71 1.30036C259.171 1.30036 258.734 1.73702 258.734 2.27565C258.734 2.81429 259.171 3.25094 259.71 3.25094Z" fill="#010101"/>
<path fill-rule="evenodd" clip-rule="evenodd" d="M262.965 3.25094C263.504 3.25094 263.941 2.81429 263.941 2.27565C263.941 1.73702 263.504 1.30036 262.965 1.30036C262.426 1.30036 261.988 1.73702 261.988 2.27565C261.988 2.81429 262.426 3.25094 262.965 3.25094Z" fill="#010101"/>
<path fill-rule="evenodd" clip-rule="evenodd" d="M266.219 3.25094C266.759 3.25094 267.196 2.81429 267.196 2.27565C267.196 1.73702 266.759 1.30036 266.219 1.30036C265.68 1.30036 265.243 1.73702 265.243 2.27565C265.243 2.81429 265.68 3.25094 266.219 3.25094Z" fill="#010101"/>
<path fill-rule="evenodd" clip-rule="evenodd" d="M269.474 3.25094C270.013 3.25094 270.45 2.81429 270.45 2.27565C270.45 1.73702 270.013 1.30036 269.474 1.30036C268.935 1.30036 268.498 1.73702 268.498 2.27565C268.498 2.81429 268.935 3.25094 269.474 3.25094Z" fill="#010101"/>
</g>
</g>
<defs>
<filter id="filter0_f_0_5400" x="447.888" y="-13.6027" width="34.3654" height="1040.21" filterUnits="userSpaceOnUse" color-interpolation-filters="sRGB">
<feFlood flood-opacity="0" result="BackgroundImageFix"/>
<feBlend mode="normal" in="SourceGraphic" in2="BackgroundImageFix" result="shape"/>
<feGaussianBlur stdDeviation="6.7957" result="effect1_foregroundBlur_0_5400"/>
</filter>
<filter id="filter1_f_0_5400" x="-12.3008" y="-13.6027" width="34.3654" height="1040.21" filterUnits="userSpaceOnUse" color-interpolation-filters="sRGB">
<feFlood flood-opacity="0" result="BackgroundImageFix"/>
<feBlend mode="normal" in="SourceGraphic" in2="BackgroundImageFix" result="shape"/>
<feGaussianBlur stdDeviation="6.7957" result="effect1_foregroundBlur_0_5400"/>
</filter>
<filter id="filter2_i_0_5400" x="-0.42027" y="-18.0509" width="469.165" height="1031.3" filterUnits="userSpaceOnUse" color-interpolation-filters="sRGB">
<feFlood flood-opacity="0" result="BackgroundImageFix"/>
<feBlend mode="normal" in="SourceGraphic" in2="BackgroundImageFix" result="shape"/>
<feColorMatrix in="SourceAlpha" type="matrix" values="0 0 0 0 0 0 0 0 0 0 0 0 0 0 0 0 0 0 127 0" result="hardAlpha"/>
<feOffset dy="-4"/>
<feGaussianBlur stdDeviation="1"/>
<feComposite in2="hardAlpha" operator="arithmetic" k2="-1" k3="1"/>
<feColorMatrix type="matrix" values="0 0 0 0 0.643137 0 0 0 0 0.643137 0 0 0 0 0.643137 0 0 0 1 0"/>
<feBlend mode="normal" in2="shape" result="effect1_innerShadow_0_5400"/>
</filter>
<filter id="filter3_i_0_5400" x="-0.42027" y="-7.20495" width="469.165" height="1034.3" filterUnits="userSpaceOnUse" color-interpolation-filters="sRGB">
<feFlood flood-opacity="0" result="BackgroundImageFix"/>
<feBlend mode="normal" in="SourceGraphic" in2="BackgroundImageFix" result="shape"/>
<feColorMatrix in="SourceAlpha" type="matrix" values="0 0 0 0 0 0 0 0 0 0 0 0 0 0 0 0 0 0 127 0" result="hardAlpha"/>
<feOffset dy="-5"/>
<feGaussianBlur stdDeviation="2.5"/>
<feComposite in2="hardAlpha" operator="arithmetic" k2="-1" k3="1"/>
<feColorMatrix type="matrix" values="0 0 0 0 0.88519 0 0 0 0 0.88519 0 0 0 0 0.88519 0 0 0 1 0"/>
<feBlend mode="normal" in2="shape" result="effect1_innerShadow_0_5400"/>
</filter>
<filter id="filter4_f_0_5400" x="190.272" y="-1.09507" width="87.7803" height="6.41637" filterUnits="userSpaceOnUse" color-interpolation-filters="sRGB">
<feFlood flood-opacity="0" result="BackgroundImageFix"/>
<feBlend mode="normal" in="SourceGraphic" in2="BackgroundImageFix" result="shape"/>
<feGaussianBlur stdDeviation="1.35914" result="effect1_foregroundBlur_0_5400"/>
</filter>
<linearGradient id="paint0_linear_0_5400" x1="38.3404" y1="154.025" x2="38.3404" y2="1013.25" gradientUnits="userSpaceOnUse">
<stop stop-color="#020000"/>
<stop offset="1" stop-color="#606060"/>
</linearGradient>
<linearGradient id="paint1_linear_0_5400" x1="351.454" y1="-2.2008" x2="351.454" y2="512.449" gradientUnits="userSpaceOnUse">
<stop stop-color="#404040"/>
<stop offset="1" stop-color="#020000"/>
</linearGradient>
</defs>
</svg>
